<?xml version="1.0" encoding="iso-8859-1"?>
<!-- Generator: Adobe Illustrator 17.1.0, SVG Export Plug-In . SVG Version: 6.00 Build 0)  -->
<!DOCTYPE svg PUBLIC "-//W3C//DTD SVG 1.1//EN" "http://www.w3.org/Graphics/SVG/1.1/DTD/svg11.dtd">
<svg version="1.1" id="Capa_1" xmlns="http://www.w3.org/2000/svg" xmlns:xlink="http://www.w3.org/1999/xlink" x="0px" y="0px"
	 viewBox="0 0 208.763 208.763" width='30px' height='30px' style="enable-background:new 0 0 208.763 208.763;" xml:space="preserve">
<path fill="#fff" fill-opacity="1" d="M189.67,160.105c3.753,9.307,3.493,18.937-0.75,27.847c-4.855,10.196-15.685,15.812-30.493,15.812c-0.002,0-0.002,0-0.004,0
	c-15.069-0.001-31.213-5.589-39.835-10.779c-8.663-5.216-12.425-6.139-13.351-6.298c-0.582,0.068-1.172,0.067-1.758-0.004
	c-0.8,0.141-4.546,1.021-13.316,6.302c-8.624,5.191-24.769,10.779-39.836,10.779c-14.812,0-25.642-5.615-30.497-15.812
	c-4.243-8.911-4.502-18.54-0.749-27.847c5.035-12.486,16.123-21.397,24.878-24.69c7.543-2.837,11.182-10.702,18.692-28.223
	c1.294-3.018,2.68-6.248,4.201-9.696c10.664-24.162,30.308-26.04,36.074-26.04c0.581,0,1.069,0.018,1.448,0.039
	c0.379-0.021,0.867-0.039,1.448-0.039c5.767,0,25.41,1.878,36.074,26.04c1.522,3.449,2.908,6.681,4.202,9.699
	c7.511,17.519,11.149,25.383,18.691,28.22C173.546,138.707,184.635,147.618,189.67,160.105z M33.785,122.061
	c13.564-3.817,21.041-19.572,16.667-35.121c-3.665-13.026-14.516-22.125-26.388-22.125c-2.08,0-4.148,0.285-6.147,0.848
	C4.352,69.48-3.124,85.235,1.25,100.783c3.665,13.026,14.517,22.125,26.389,22.125C29.718,122.908,31.786,122.623,33.785,122.061z
	 M71.753,72.412c1.356,0,2.723-0.118,4.06-0.353c7.588-1.331,14.222-6.431,18.199-13.989c3.699-7.031,4.91-15.618,3.408-24.181
	C94.484,17.15,82.182,5,68.171,5c-1.356,0-2.723,0.118-4.06,0.354c-7.588,1.33-14.221,6.43-18.199,13.989
	c-3.699,7.03-4.91,15.618-3.408,24.179C45.439,60.263,57.74,72.412,71.753,72.412z M206.218,79.443
	c-3.045-6.863-8.653-11.886-15.386-13.78c-1.999-0.563-4.067-0.848-6.147-0.848c-11.872,0-22.723,9.099-26.388,22.125
	c-4.374,15.549,3.103,31.304,16.667,35.121c1.999,0.563,4.067,0.848,6.146,0.848c11.871,0,22.724-9.099,26.389-22.125
	C209.549,93.502,209.094,85.923,206.218,79.443z M132.937,72.06c1.337,0.234,2.702,0.353,4.059,0.353c0.001,0,0.001,0,0.002,0
	c14.011,0,26.313-12.149,29.249-28.89c3.225-18.392-6.469-35.514-21.608-38.17C143.301,5.118,141.935,5,140.579,5
	c-14.011,0-26.312,12.149-29.248,28.89C108.104,52.281,117.797,69.404,132.937,72.06z"/>
<g>
</g>
<g>
</g>
<g>
</g>
<g>
</g>
<g>
</g>
<g>
</g>
<g>
</g>
<g>
</g>
<g>
</g>
<g>
</g>
<g>
</g>
<g>
</g>
<g>
</g>
<g>
</g>
<g>
</g>
</svg>
